# xmcd CD database file
#
# Track frame offsets:
#	150
#	11834
#	33995
#	46584
#	58701
#	69158
#	80595
#	96902
#	110494
#	122530
#	138303
#	147784
#	160774
#	178147
#	192527
#	210634
#
# Disc length: 2932 seconds
#
# Revision: 0
# Processed by: cddbd v1.4PL0 Copyright (c) Steve Scherf et al.
# Submitted via: CDex 1.50beta9
#
DISCID=db0b7210
DTITLE=Nina Simone - I Put A Spell On You
DYEAR=1989
DGENRE=Jazz
TTITLE0=I Put A Spell On Ypu
TTITLE1=Mississippi Goddam
TTITLE2=Don´t Let Me Be Misanderstood
TTITLE3=Trouble In Mind
TTITLE4=The Laziest Gal In Town
TTITLE5=I Love You Porgy
TTITLE6=Ne Me Quitte Pas
TTITLE7=Gimme Some
TTITLE8=Nobody Knows You When You´re Down And Out
TTITLE9=Strange Fruit
TTITLE10=Take Care Of Business
TTITLE11=Don´t Take All Night
TTITLE12=Plain Goldring
TTITLE13=He´s Got The Whole World In His Hand
TTITLE14=For All We Know
TTITLE15=Central Park Blues
EXTD=YEAR: 1989
EXTT0=
EXTT1=
EXTT2=
EXTT3=
EXTT4=
EXTT5=
EXTT6=
EXTT7=
EXTT8=
EXTT9=
EXTT10=
EXTT11=
EXTT12=
EXTT13=
EXTT14=
EXTT15=
PLAYORDER=
